PathFileType	4	(X/Y/Z)	C:\Users\visiteur\Documents\Sourcetree_OSPipeline\dataTest\rep_global_FRMB_Diane\AM02SH\ScapLoc\Prop_R_F_01.trc
DataRate	CameraRate	NumFrames	NumMarkers	Units	OrigDataRate	OrigDataStartFrame	OrigNumFrames
100	100	9	47	m	100	332	755
Frame#	Time	MTTETE			TEMPG			OCCG			OCCD			TEMPD			MAN			C7			XYP			COSTALD			COSTALG			MTACDL			MTACDM			MTACDB			ACD			CLAVD			MTACGL			MTACGM			MTACGB			ACG			CLAVG			MTBHAG			MTBHPG			MTBBPG			MTBBAG			ELG			EMG			MTABG			PSRG			PSUG			MC2G			MC5G			MTBHAD			MTBHPD			MTBBPD			MTBBAD			ELD			MTABD			PSRD			PSUD			MC2D			MC5D			EMD			AAD			AID			TSD			SCLHLD			SCLHMD			
		X1	Y1	Z1	X2	Y2	Z2	X3	Y3	Z3	X4	Y4	Z4	X5	Y5	Z5	X6	Y6	Z6	X7	Y7	Z7	X8	Y8	Z8	X9	Y9	Z9	X10	Y10	Z10	X11	Y11	Z11	X12	Y12	Z12	X13	Y13	Z13	X14	Y14	Z14	X15	Y15	Z15	X16	Y16	Z16	X17	Y17	Z17	X18	Y18	Z18	X19	Y19	Z19	X20	Y20	Z20	X21	Y21	Z21	X22	Y22	Z22	X23	Y23	Z23	X24	Y24	Z24	X25	Y25	Z25	X26	Y26	Z26	X27	Y27	Z27	X28	Y28	Z28	X29	Y29	Z29	X30	Y30	Z30	X31	Y31	Z31	X32	Y32	Z32	X33	Y33	Z33	X34	Y34	Z34	X35	Y35	Z35	X36	Y36	Z36	X37	Y37	Z37	X38	Y38	Z38	X39	Y39	Z39	X40	Y40	Z40	X41	Y41	Z41	X42	Y42	Z42	X43	Y43	Z43	X44	Y44	Z44	X45	Y45	Z45	X46	Y46	Z46	X47	Y47	Z47	
284	2.8400	0.030875	1.277890	0.001759	-0.009839	1.244331	-0.075874	-0.111681	1.178111	-0.080884	-0.113249	1.177747	0.091098	-0.017523	1.237248	0.091332	-0.024644	1.004613	0.016826	-0.175791	1.098527	-0.000163	0.028763	0.835506	0.034129	0.020033	0.807747	0.117710	0.042684	0.797404	-0.071467	-0.173418	1.076155	0.161907	-0.198090	1.092249	0.113797	-0.212705	1.074822	0.148886	-0.125719	1.076989	0.199852	-0.051361	1.037164	0.104853	-0.136657	1.054726	-0.170425	-0.163217	1.087192	-0.132801	-0.174083	1.060176	-0.164039	-0.078700	1.057738	-0.183721	-0.026831	1.033421	-0.063264	-0.101367	0.966716	-0.291949	NaN	NaN	NaN	NaN	NaN	NaN	-0.127175	0.878527	-0.329037	-0.068056	0.776054	-0.381990	-0.115095	0.732746	-0.322645	0.050763	0.696199	-0.299828	0.132718	0.626782	-0.277342	0.100847	0.598173	-0.342190	0.192941	0.562318	-0.311799	0.141441	0.539148	-0.350843	-0.149813	1.017917	0.286476	-0.199481	1.033816	0.276889	-0.212638	0.954259	0.319883	-0.147899	0.929550	0.334425	-0.231833	0.811610	0.383770	-0.059305	0.701209	0.316191	-0.025298	0.655370	0.296490	-0.044585	0.633919	0.374061	0.065694	0.619291	0.329795	0.015681	0.593270	0.389995	NaN	NaN	NaN	-0.146304	1.047572	0.208338	-0.232847	0.931298	0.097047	-0.207211	1.024337	0.080882	-0.098787	1.111577	0.269670	-0.150479	1.203310	0.050833	
285	2.8500	0.030943	1.277922	0.001894	-0.009693	1.244482	-0.075845	-0.111640	1.178330	-0.081100	-0.113456	1.177785	0.090848	-0.017673	1.237201	0.091335	-0.024589	1.004746	0.016842	-0.175809	1.098485	-0.000956	0.028975	0.835661	0.034429	0.020074	0.807817	0.118010	0.042812	0.797091	-0.071073	-0.173612	1.075705	0.162223	-0.198679	1.091923	0.114301	-0.213210	1.074297	0.149243	-0.126099	1.076972	0.200196	-0.051639	1.037582	0.104668	-0.135164	1.053376	-0.171800	-0.162377	1.086058	-0.134570	-0.172628	1.058733	-0.165848	-0.076831	1.056381	-0.184350	-0.026815	1.032896	-0.062742	-0.096045	0.963500	-0.292190	-0.171712	0.920093	-0.250179	-0.161534	0.849451	-0.308065	-0.119187	0.874481	-0.328790	-0.057546	0.772598	-0.379599	-0.104104	0.728781	-0.320701	0.061717	0.692560	-0.298743	0.143768	0.621973	-0.276684	0.111531	0.594410	-0.341556	0.202434	0.555598	-0.310644	0.150688	0.534209	-0.350208	-0.148748	1.016327	0.286236	-0.198588	1.031765	0.277852	-0.209467	0.951684	0.320707	-0.144179	0.928319	0.334235	-0.224901	0.808319	0.383882	-0.050880	0.700965	0.316323	-0.016312	0.655681	0.297930	-0.034516	0.634480	0.374361	0.075822	0.617040	0.330210	0.025259	0.592813	0.390212	NaN	NaN	NaN	-0.146195	1.047376	0.208428	-0.232862	0.931132	0.097119	-0.207458	1.024315	0.081188	-0.098846	1.111143	0.270061	-0.151348	1.203507	0.051674	
286	2.8600	0.031016	1.277948	0.001962	-0.009557	1.244608	-0.075863	-0.111524	1.178597	-0.081398	-0.113640	1.177843	0.090588	-0.017848	1.237197	0.091298	-0.024628	1.004869	0.016820	-0.175578	1.098492	-0.001760	0.029087	0.835826	0.034739	0.020062	0.807893	0.118200	0.043000	0.796845	-0.070734	-0.173927	1.075344	0.162648	-0.199431	1.091603	0.114960	-0.213504	1.073493	0.149833	-0.126334	1.076881	0.200585	-0.051851	1.037925	0.104285	-0.133652	1.052169	-0.172968	-0.161571	1.085279	-0.136678	-0.171208	1.057449	-0.167564	-0.073863	1.055502	-0.185438	-0.026477	1.032733	-0.062600	-0.091768	0.959219	-0.290488	-0.166435	0.916048	-0.251609	NaN	NaN	NaN	-0.111257	0.870711	-0.328521	-0.046883	0.769357	-0.376805	-0.093854	0.725387	-0.318356	0.072681	0.688620	-0.297382	0.155340	0.617547	-0.275308	0.121655	0.590013	-0.340851	0.211590	0.548731	-0.309880	0.159115	0.528860	-0.349541	-0.146857	1.015513	0.286888	-0.197629	1.029622	0.278838	-0.206064	0.949022	0.321352	-0.140025	0.926956	0.333670	-0.217689	0.804906	0.383752	-0.042711	0.700687	0.316895	-0.005763	0.656264	0.298496	-0.024563	0.634564	0.374705	0.085776	0.614496	0.330715	0.034333	0.591528	0.390482	NaN	NaN	NaN	-0.146261	1.046982	0.208750	-0.232823	0.931032	0.097114	-0.207737	1.024341	0.081587	-0.098808	1.110775	0.270424	-0.152279	1.203806	0.052538	
287	2.8700	0.030964	1.277953	0.002008	-0.009514	1.244757	-0.075937	-0.111474	1.178880	-0.081722	-0.113934	1.177982	0.090325	-0.018055	1.237193	0.091250	-0.024644	1.005065	0.016774	-0.175647	1.098393	-0.002243	0.029251	0.836061	0.034942	0.020062	0.807995	0.118350	0.043272	0.796686	-0.070425	-0.174251	1.074919	0.163013	-0.199958	1.091085	0.115593	-0.213888	1.072996	0.150400	-0.126512	1.076664	0.200913	-0.052265	1.038159	0.104080	-0.131742	1.051391	-0.174515	-0.160524	1.084557	-0.138523	-0.169497	1.056387	-0.169217	-0.072539	1.054150	-0.185636	-0.026415	1.032473	-0.062228	-0.086280	0.956351	-0.290564	-0.160978	0.912128	-0.253036	-0.145164	0.840846	-0.308815	-0.103138	0.867041	-0.327920	-0.036379	0.766154	-0.373490	-0.083616	0.722112	-0.315482	0.083426	0.684209	-0.295534	0.166428	0.612583	-0.274591	0.131159	0.585363	-0.340139	0.220211	0.541820	-0.309033	0.167070	0.523432	-0.348785	-0.145147	1.014177	0.286985	-0.196278	1.027265	0.279892	-0.202373	0.946198	0.321978	-0.135793	0.925395	0.333079	-0.210142	0.801419	0.383401	-0.034716	0.699682	0.318371	0.004767	0.656496	0.299070	-0.014776	0.634219	0.375144	0.095704	0.611554	0.331243	0.043225	0.589937	0.390881	NaN	NaN	NaN	-0.146205	1.046570	0.208914	-0.232808	0.930823	0.097216	-0.207852	1.024254	0.081794	-0.098773	1.110266	0.270674	-0.153092	1.203964	0.053379	
288	2.8800	0.030894	1.277960	0.001994	-0.009460	1.244880	-0.076068	-0.111549	1.179109	-0.082044	-0.114222	1.178156	0.089992	-0.018301	1.237222	0.091146	-0.024779	1.005202	0.016707	-0.175732	1.098269	-0.002741	0.029364	0.836267	0.035097	0.020064	0.808097	0.118388	0.043484	0.796559	-0.070244	-0.174727	1.074444	0.163507	-0.200668	1.090708	0.116300	-0.214303	1.072238	0.151145	-0.126710	1.076433	0.201279	-0.052517	1.038484	0.103669	-0.130153	1.050463	-0.175457	-0.159513	1.083901	-0.140331	-0.167941	1.055479	-0.170747	-0.071281	1.052656	-0.185668	-0.026232	1.032396	-0.062092	-0.080603	0.953775	-0.290573	-0.155350	0.908448	-0.254456	NaN	NaN	NaN	-0.094876	0.863559	-0.327283	-0.026068	0.763213	-0.370050	-0.073638	0.719069	-0.312242	0.093725	0.679600	-0.293384	0.177101	0.607307	-0.273974	0.140271	0.580743	-0.339537	0.228221	0.534794	-0.308304	0.174736	0.517964	-0.348173	-0.141241	1.012718	0.286021	-0.194832	1.024753	0.280919	-0.198313	0.943396	0.321906	-0.130647	0.924319	0.332195	-0.202427	0.797931	0.382855	-0.025074	0.699016	0.318902	0.015230	0.656395	0.299778	-0.004810	0.633611	0.375517	0.105306	0.608284	0.331798	0.052294	0.588359	0.391038	NaN	NaN	NaN	-0.146080	1.046159	0.209012	-0.232722	0.930681	0.097215	-0.208093	1.024100	0.082151	-0.098622	1.109671	0.271169	-0.153839	1.204136	0.054257	
289	2.8900	0.030798	1.277961	0.001883	-0.009452	1.244995	-0.076289	-0.111614	1.179290	-0.082403	-0.114583	1.178311	0.089553	-0.018561	1.237241	0.090957	-0.024839	1.005411	0.016564	-0.175856	1.098102	-0.003296	0.029544	0.836494	0.035160	0.020049	0.808168	0.118420	0.043740	0.796498	-0.070136	-0.174853	1.073756	0.164019	-0.201249	1.090271	0.117027	-0.214641	1.071384	0.151733	-0.126817	1.076115	0.201636	-0.052805	1.038792	0.103236	-0.128798	1.049537	-0.176322	-0.158550	1.083459	-0.141985	-0.166576	1.054602	-0.172071	-0.069503	1.051676	-0.186238	-0.026150	1.032216	-0.061823	-0.074646	0.951178	-0.290473	-0.149839	0.905206	-0.256038	-0.128942	0.833144	-0.308789	-0.086589	0.860473	-0.326406	-0.015971	0.760455	-0.366175	-0.064541	0.716658	-0.308950	0.103637	0.675043	-0.291047	0.185426	0.601711	-0.272891	0.148924	0.576409	-0.338728	0.235970	0.527784	-0.307651	0.181930	0.512724	-0.347692	-0.138982	1.011198	0.285940	-0.193250	1.022041	0.282008	-0.194312	0.940235	0.322452	-0.126197	0.922411	0.331389	-0.194509	0.794359	0.381955	-0.015339	0.698089	0.319358	0.025635	0.655776	0.300418	0.005044	0.632545	0.375921	0.115010	0.604750	0.332147	0.061008	0.586180	0.391315	NaN	NaN	NaN	-0.145974	1.045628	0.209536	-0.232727	0.930435	0.097264	-0.208379	1.023886	0.082599	-0.098545	1.108970	0.271595	-0.154436	1.204184	0.055170	
290	2.9000	0.030632	1.277957	0.001716	-0.009554	1.245068	-0.076479	-0.111812	1.179453	-0.082772	-0.114953	1.178424	0.089215	-0.018888	1.237296	0.090728	-0.025040	1.005609	0.016459	-0.175978	1.097953	-0.003792	0.029684	0.836724	0.035322	0.020014	0.808226	0.118449	0.043882	0.796469	-0.069948	-0.175105	1.073145	0.164441	-0.201881	1.089858	0.117850	-0.214968	1.070673	0.152435	-0.126921	1.075754	0.202012	-0.053058	1.039019	0.103009	-0.127257	1.048930	-0.177203	-0.157518	1.083035	-0.143397	-0.165140	1.053893	-0.173282	-0.068099	1.050636	-0.186351	-0.026076	1.032146	-0.061609	-0.068131	0.949402	-0.290967	-0.144472	0.902282	-0.257681	NaN	NaN	NaN	-0.078139	0.857466	-0.325229	-0.006264	0.757942	-0.361961	-0.054926	0.713960	-0.305051	0.112915	0.670532	-0.288345	0.193690	0.596061	-0.271503	0.157106	0.572180	-0.337877	0.243162	0.521271	-0.306915	0.188580	0.507482	-0.347036	-0.136792	1.009660	0.285923	-0.191285	1.019378	0.282578	-0.189958	0.937096	0.322799	-0.121736	0.920379	0.330074	-0.186208	0.790777	0.380856	-0.005379	0.696856	0.319624	0.036217	0.654748	0.300998	0.014882	0.631215	0.376282	0.124499	0.600919	0.332652	0.070055	0.583826	0.391559	-0.210985	0.744385	0.318080	-0.145818	1.044961	0.209580	-0.233015	0.930284	0.097157	-0.208651	1.023776	0.082708	-0.098364	1.108122	0.271880	-0.155298	1.204236	0.056106	
291	2.9100	0.030390	1.278009	0.001522	-0.009697	1.245091	-0.076688	-0.112023	1.179541	-0.083135	-0.115421	1.178705	0.088934	-0.019248	1.237351	0.090470	-0.025216	1.005781	0.016408	-0.176741	1.098661	-0.005126	0.029730	0.836933	0.035456	0.019992	0.808255	0.118415	0.044077	0.796513	-0.069851	-0.175279	1.072553	0.164945	-0.202555	1.089577	0.118559	-0.215158	1.069772	0.153078	-0.126981	1.075377	0.202399	-0.053340	1.039166	0.102683	-0.126235	1.048040	-0.177284	-0.156472	1.082810	-0.144709	-0.163939	1.053251	-0.174464	-0.066543	1.049719	-0.186645	-0.026026	1.032078	-0.061396	-0.062623	0.946704	-0.289513	-0.138856	0.899744	-0.259348	-0.112792	0.825340	-0.306317	-0.069778	0.854930	-0.323727	0.003183	0.755707	-0.357450	-0.045776	0.711542	-0.300955	0.121640	0.666338	-0.285556	0.200917	0.589766	-0.270642	0.164744	0.567973	-0.336897	0.249995	0.514577	-0.306248	0.194793	0.502523	-0.346497	-0.134978	1.007899	0.286035	-0.189326	1.016600	0.283641	-0.185647	0.933877	0.323191	-0.116654	0.918782	0.328949	-0.177771	0.787274	0.379543	0.004352	0.695085	0.319868	0.046876	0.653344	0.301515	0.024716	0.629507	0.376600	0.133793	0.596786	0.333127	0.078709	0.580951	0.391806	NaN	NaN	NaN	-0.145718	1.044404	0.209851	-0.233049	0.930005	0.097098	-0.208953	1.023612	0.083131	-0.098133	1.107339	0.272186	-0.156104	1.204409	0.057120	
292	2.9200	0.030118	1.278044	0.001318	-0.009890	1.245116	-0.076952	-0.112275	1.179567	-0.083457	-0.115714	1.178652	0.088514	-0.019621	1.237443	0.090179	-0.025374	1.005995	0.016323	-0.176795	1.098331	-0.005260	0.029839	0.837089	0.035566	0.019927	0.808242	0.118391	0.044281	0.796523	-0.069727	-0.175693	1.072020	0.165404	-0.203067	1.089262	0.119216	-0.215429	1.069138	0.153539	-0.126940	1.074953	0.202668	-0.053694	1.039298	0.102371	-0.124842	1.047568	-0.177988	-0.155510	1.082621	-0.145988	-0.162581	1.052872	-0.175508	-0.065007	1.048995	-0.186689	-0.025974	1.031971	-0.061151	-0.056508	0.944755	-0.288705	-0.133469	0.897406	-0.260855	-0.105254	0.823471	-0.306377	-0.061584	0.852412	-0.322163	0.012402	0.753797	-0.352732	-0.037501	0.709632	-0.296919	0.129829	0.662271	-0.282587	0.208288	0.584084	-0.269308	0.171917	0.563960	-0.335957	0.256009	0.508423	-0.305279	0.200608	0.497834	-0.346060	-0.134149	1.006121	0.286346	-0.187322	1.013653	0.284651	-0.180896	0.930667	0.323082	-0.111436	0.917297	0.327684	-0.169137	0.783846	0.377851	0.014418	0.693072	0.319860	0.057395	0.651545	0.301970	0.034410	0.627474	0.376888	0.142982	0.592391	0.333504	0.087366	0.577749	0.391986	NaN	NaN	NaN	-0.145611	1.043854	0.209916	-0.233336	0.929878	0.097061	-0.209260	1.023537	0.083409	-0.097991	1.106558	0.272495	-0.156921	1.204466	0.058089	
